<mxfile host="app.diagrams.net" modified="2021-12-03T05:32:52.760Z" agent="5.0 (Macintosh; Intel Mac OS X 10_15_7) AppleWebKit/605.1.15 (KHTML, like Gecko) Version/15.1 Safari/605.1.15" etag="6SWnCC8GOwVKOcYi4C1P" version="15.8.8" type="github">
  <diagram id="NxTfqHqy7LOvdL_6ZRT3" name="Page-1">
    <mxGraphModel dx="1186" dy="770" grid="1" gridSize="10" guides="1" tooltips="1" connect="1" arrows="1" fold="1" page="0" pageScale="1" pageWidth="827" pageHeight="1169" math="0" shadow="0">
      <root>
        <mxCell id="0" />
        <mxCell id="1" parent="0" />
        <mxCell id="DiwhY0J19sAkem3FNTXi-39" style="edgeStyle=orthogonalEdgeStyle;rounded=0;orthogonalLoop=1;jettySize=auto;html=1;endArrow=none;endFill=0;startSize=12;endSize=12;strokeWidth=2;" edge="1" parent="1" source="DiwhY0J19sAkem3FNTXi-22" target="DiwhY0J19sAkem3FNTXi-26">
          <mxGeometry relative="1" as="geometry" />
        </mxCell>
        <mxCell id="DiwhY0J19sAkem3FNTXi-22" value="Core" style="swimlane;fontStyle=1;align=center;verticalAlign=top;childLayout=stackLayout;horizontal=1;startSize=26;horizontalStack=0;resizeParent=1;resizeParentMax=0;resizeLast=0;collapsible=1;marginBottom=0;rounded=1;strokeWidth=2;" vertex="1" parent="1">
          <mxGeometry x="320" y="40" width="160" height="138" as="geometry" />
        </mxCell>
        <mxCell id="DiwhY0J19sAkem3FNTXi-23" value="Services (Logik)" style="text;strokeColor=none;fillColor=none;align=left;verticalAlign=top;spacingLeft=4;spacingRight=4;overflow=hidden;rotatable=0;points=[[0,0.5],[1,0.5]];portConstraint=eastwest;rounded=1;" vertex="1" parent="DiwhY0J19sAkem3FNTXi-22">
          <mxGeometry y="26" width="160" height="26" as="geometry" />
        </mxCell>
        <mxCell id="DiwhY0J19sAkem3FNTXi-24" value="" style="line;strokeWidth=2;fillColor=none;align=left;verticalAlign=middle;spacingTop=-1;spacingLeft=3;spacingRight=3;rotatable=0;labelPosition=right;points=[];portConstraint=eastwest;rounded=1;" vertex="1" parent="DiwhY0J19sAkem3FNTXi-22">
          <mxGeometry y="52" width="160" height="8" as="geometry" />
        </mxCell>
        <mxCell id="DiwhY0J19sAkem3FNTXi-25" value="Interfaces" style="text;strokeColor=none;fillColor=none;align=left;verticalAlign=top;spacingLeft=4;spacingRight=4;overflow=hidden;rotatable=0;points=[[0,0.5],[1,0.5]];portConstraint=eastwest;rounded=1;" vertex="1" parent="DiwhY0J19sAkem3FNTXi-22">
          <mxGeometry y="60" width="160" height="26" as="geometry" />
        </mxCell>
        <mxCell id="DiwhY0J19sAkem3FNTXi-8" value="Configuration" style="text;strokeColor=none;fillColor=none;align=left;verticalAlign=top;spacingLeft=4;spacingRight=4;overflow=hidden;rotatable=0;points=[[0,0.5],[1,0.5]];portConstraint=eastwest;" vertex="1" parent="DiwhY0J19sAkem3FNTXi-22">
          <mxGeometry y="86" width="160" height="26" as="geometry" />
        </mxCell>
        <mxCell id="DiwhY0J19sAkem3FNTXi-9" value="Models" style="text;strokeColor=none;fillColor=none;align=left;verticalAlign=top;spacingLeft=4;spacingRight=4;overflow=hidden;rotatable=0;points=[[0,0.5],[1,0.5]];portConstraint=eastwest;" vertex="1" parent="DiwhY0J19sAkem3FNTXi-22">
          <mxGeometry y="112" width="160" height="26" as="geometry" />
        </mxCell>
        <mxCell id="DiwhY0J19sAkem3FNTXi-38" style="edgeStyle=orthogonalEdgeStyle;rounded=0;orthogonalLoop=1;jettySize=auto;html=1;strokeWidth=2;endSize=12;startSize=12;endArrow=open;endFill=0;" edge="1" parent="1" source="DiwhY0J19sAkem3FNTXi-26" target="DiwhY0J19sAkem3FNTXi-32">
          <mxGeometry relative="1" as="geometry" />
        </mxCell>
        <mxCell id="DiwhY0J19sAkem3FNTXi-26" value="DataAccess" style="swimlane;fontStyle=1;align=center;verticalAlign=top;childLayout=stackLayout;horizontal=1;startSize=26;horizontalStack=0;resizeParent=1;resizeParentMax=0;resizeLast=0;collapsible=1;marginBottom=0;rounded=1;strokeWidth=2;" vertex="1" parent="1">
          <mxGeometry x="560" y="66" width="200" height="86" as="geometry" />
        </mxCell>
        <mxCell id="DiwhY0J19sAkem3FNTXi-27" value="Repositories (Datenbereitstellung)" style="text;strokeColor=none;fillColor=none;align=left;verticalAlign=top;spacingLeft=4;spacingRight=4;overflow=hidden;rotatable=0;points=[[0,0.5],[1,0.5]];portConstraint=eastwest;rounded=1;" vertex="1" parent="DiwhY0J19sAkem3FNTXi-26">
          <mxGeometry y="26" width="200" height="26" as="geometry" />
        </mxCell>
        <mxCell id="DiwhY0J19sAkem3FNTXi-28" value="" style="line;strokeWidth=2;fillColor=none;align=left;verticalAlign=middle;spacingTop=-1;spacingLeft=3;spacingRight=3;rotatable=0;labelPosition=right;points=[];portConstraint=eastwest;rounded=1;" vertex="1" parent="DiwhY0J19sAkem3FNTXi-26">
          <mxGeometry y="52" width="200" height="8" as="geometry" />
        </mxCell>
        <mxCell id="DiwhY0J19sAkem3FNTXi-29" value="Converteres (DTO to Core Model)" style="text;strokeColor=none;fillColor=none;align=left;verticalAlign=top;spacingLeft=4;spacingRight=4;overflow=hidden;rotatable=0;points=[[0,0.5],[1,0.5]];portConstraint=eastwest;rounded=1;" vertex="1" parent="DiwhY0J19sAkem3FNTXi-26">
          <mxGeometry y="60" width="200" height="26" as="geometry" />
        </mxCell>
        <mxCell id="DiwhY0J19sAkem3FNTXi-32" value="ServiceModel" style="swimlane;fontStyle=1;align=center;verticalAlign=top;childLayout=stackLayout;horizontal=1;startSize=26;horizontalStack=0;resizeParent=1;resizeParentMax=0;resizeLast=0;collapsible=1;marginBottom=0;rounded=1;strokeWidth=2;" vertex="1" parent="1">
          <mxGeometry x="840" y="66" width="160" height="86" as="geometry" />
        </mxCell>
        <mxCell id="DiwhY0J19sAkem3FNTXi-33" value="Requests (API Routes)" style="text;strokeColor=none;fillColor=none;align=left;verticalAlign=top;spacingLeft=4;spacingRight=4;overflow=hidden;rotatable=0;points=[[0,0.5],[1,0.5]];portConstraint=eastwest;rounded=1;" vertex="1" parent="DiwhY0J19sAkem3FNTXi-32">
          <mxGeometry y="26" width="160" height="26" as="geometry" />
        </mxCell>
        <mxCell id="DiwhY0J19sAkem3FNTXi-34" value="" style="line;strokeWidth=2;fillColor=none;align=left;verticalAlign=middle;spacingTop=-1;spacingLeft=3;spacingRight=3;rotatable=0;labelPosition=right;points=[];portConstraint=eastwest;rounded=1;" vertex="1" parent="DiwhY0J19sAkem3FNTXi-32">
          <mxGeometry y="52" width="160" height="8" as="geometry" />
        </mxCell>
        <mxCell id="DiwhY0J19sAkem3FNTXi-35" value="Models (DTOs)" style="text;strokeColor=none;fillColor=none;align=left;verticalAlign=top;spacingLeft=4;spacingRight=4;overflow=hidden;rotatable=0;points=[[0,0.5],[1,0.5]];portConstraint=eastwest;rounded=1;" vertex="1" parent="DiwhY0J19sAkem3FNTXi-32">
          <mxGeometry y="60" width="160" height="26" as="geometry" />
        </mxCell>
      </root>
    </mxGraphModel>
  </diagram>
</mxfile>
